<?xml version="1.0" standalone="no"?>
<!DOCTYPE svg PUBLIC "-//W3C//DTD SVG 20010904//EN"
 "http://www.w3.org/TR/2001/REC-SVG-20010904/DTD/svg10.dtd">
<svg version="1.0" xmlns="http://www.w3.org/2000/svg"
 width="200.000000pt" height="200.000000pt" viewBox="0 0 200.000000 200.000000"
 preserveAspectRatio="xMidYMid meet">
<metadata>
Created by potrace 1.16, written by Peter Selinger 2001-2019
</metadata>
<g transform="translate(0.000000,200.000000) scale(0.100000,-0.100000)"
fill="#000000" stroke="none">
<path d="M247 1430 l-249 -430 96 -168 c53 -92 165 -286 249 -432 l153 -265
501 -3 501 -2 60 102 c32 57 145 252 251 435 l192 331 -248 431 -248 431 -505
0 -505 0 -248 -430z m1294 247 l77 -132 -462 -5 c-324 -4 -467 -8 -481 -17
-47 -27 -80 -83 -199 -344 l-126 -275 0 -189 c0 -160 -2 -187 -14 -175 -7 8
-70 115 -141 238 l-127 222 79 138 c44 75 149 257 234 404 l154 268 465 0 465
0 76 -133z m249 -429 l142 -248 -234 -405 -233 -405 -465 0 -465 0 -78 136
-79 136 182 396 c101 219 192 408 204 420 41 46 46 47 403 52 l341 5 43 30
c27 19 53 49 69 81 14 28 26 50 26 50 1 -1 65 -112 144 -248z"/>
<path d="M864 1161 c-51 -31 -94 -108 -94 -167 l0 -24 264 0 c163 0 275 4 293
11 60 23 112 100 113 167 l0 32 -272 0 c-250 0 -276 -2 -304 -19z"/>
<path d="M625 815 c-22 -22 -25 -32 -25 -105 l0 -80 265 0 c172 0 273 4 288
11 35 16 47 49 47 129 l0 70 -275 0 -276 0 -24 -25z"/>
</g>
</svg>
